<svg width="246" height="503" viewBox="0 0 246 503" fill="none" xmlns="http://www.w3.org/2000/svg">
<path opacity="0.35" d="M85.304 166.679C85.304 165.912 85.9251 165.291 86.6913 165.291H90.2446C91.0108 165.291 91.6319 165.912 91.6319 166.679C91.6319 167.445 91.0108 168.066 90.2446 168.066H86.6913C85.9251 168.066 85.304 167.445 85.304 166.679Z" stroke="black"/>
<path opacity="0.4" d="M92.465 166.012V166.497C92.465 166.9 92.9074 167.081 92.9074 166.679C92.9074 166.388 92.7331 166.125 92.465 166.012Z" fill="black"/>
<path d="M85.4701 166.679C85.4701 166.004 86.0169 165.457 86.6913 165.457H90.2445C90.919 165.457 91.4658 166.004 91.4658 166.679C91.4658 167.353 90.919 167.9 90.2445 167.9H86.6913C86.0169 167.9 85.4701 167.353 85.4701 166.679Z" fill="black"/>
<path fill-rule="evenodd" clip-rule="evenodd" d="M80.5838 165.549C81.3219 165.549 82.0317 165.832 82.5667 166.341C82.607 166.38 82.6713 166.38 82.711 166.34L83.0961 165.951C83.1161 165.931 83.1273 165.904 83.1272 165.875C83.127 165.847 83.1155 165.819 83.0952 165.799C81.6912 164.454 79.4762 164.454 78.0722 165.799C78.0518 165.819 78.0403 165.847 78.0401 165.875C78.0399 165.904 78.0511 165.931 78.0712 165.951L78.4563 166.34C78.496 166.38 78.5604 166.38 78.6007 166.341C79.1357 165.832 79.8456 165.549 80.5838 165.549ZM80.5838 166.813C80.9893 166.813 81.3804 166.964 81.681 167.236C81.7217 167.275 81.7857 167.274 81.8253 167.234L82.2099 166.845C82.2302 166.825 82.2414 166.797 82.2411 166.769C82.2409 166.74 82.2291 166.713 82.2084 166.693C81.293 165.841 79.8754 165.841 78.96 166.693C78.9393 166.713 78.9275 166.74 78.9272 166.769C78.927 166.797 78.9382 166.825 78.9585 166.845L79.343 167.234C79.3827 167.274 79.4467 167.275 79.4874 167.236C79.7878 166.964 80.1785 166.813 80.5838 166.813ZM81.3542 167.664C81.3548 167.692 81.3435 167.72 81.3229 167.74L80.6576 168.412C80.6381 168.431 80.6115 168.443 80.5838 168.443C80.556 168.443 80.5294 168.431 80.5099 168.412L79.8445 167.74C79.824 167.72 79.8127 167.692 79.8133 167.664C79.8139 167.635 79.8263 167.607 79.8477 167.588C80.2726 167.229 80.8949 167.229 81.3198 167.588C81.3412 167.607 81.3536 167.635 81.3542 167.664Z" fill="black"/>
<path fill-rule="evenodd" clip-rule="evenodd" d="M76.0325 164.902H75.6995C75.5155 164.902 75.3664 165.051 75.3664 165.235V168.122C75.3664 168.306 75.5155 168.455 75.6995 168.455H76.0325C76.2165 168.455 76.3656 168.306 76.3656 168.122V165.235C76.3656 165.051 76.2165 164.902 76.0325 164.902ZM74.145 165.679H74.4781C74.6621 165.679 74.8112 165.828 74.8112 166.012V168.122C74.8112 168.306 74.6621 168.455 74.4781 168.455H74.145C73.9611 168.455 73.812 168.306 73.812 168.122V166.012C73.812 165.828 73.9611 165.679 74.145 165.679ZM72.9237 166.457H72.5906C72.4066 166.457 72.2575 166.606 72.2575 166.79V168.122C72.2575 168.306 72.4066 168.455 72.5906 168.455H72.9237C73.1076 168.455 73.2568 168.306 73.2568 168.122V166.79C73.2568 166.606 73.1076 166.457 72.9237 166.457ZM71.3693 167.123H71.0362C70.8523 167.123 70.7032 167.272 70.7032 167.456V168.122C70.7032 168.306 70.8523 168.455 71.0362 168.455H71.3693C71.5533 168.455 71.7024 168.306 71.7024 168.122V167.456C71.7024 167.272 71.5533 167.123 71.3693 167.123Z" fill="black"/>
<path d="M0 123.892C0 122.923 0.784831 122.139 1.75297 122.139C2.72111 122.139 3.50594 122.923 3.50594 123.892V133.24C3.50594 134.208 2.72111 134.992 1.75297 134.992C0.784831 134.992 0 134.208 0 133.24V123.892Z" fill="#E44A4A"/>
<path d="M0 201.015C0 200.047 0.784831 199.262 1.75297 199.262C2.72111 199.262 3.50594 200.047 3.50594 201.015V239.577C3.50594 240.545 2.72111 241.33 1.75297 241.33C0.784831 241.33 0 240.545 0 239.577V201.015Z" fill="#E44A4A"/>
<path d="M246 168.88C246 167.912 245.215 167.127 244.247 167.127C243.279 167.127 242.494 167.912 242.494 168.88V234.318C242.494 235.287 243.279 236.071 244.247 236.071C245.215 236.071 246 235.287 246 234.318V168.88Z" fill="#E44A4A"/>
<path d="M0 150.768C0 149.8 0.784831 149.015 1.75297 149.015C2.72111 149.015 3.50594 149.8 3.50594 150.768V189.33C3.50594 190.298 2.72111 191.083 1.75297 191.083C0.784831 191.083 0 190.298 0 189.33V150.768Z" fill="#E44A4A"/>
<rect x="2.00815" width="242.988" height="503" rx="38" fill="url(#paint0_linear_6_7)"/>
<rect x="4.79556" y="5.88905" width="235.941" height="491.98" rx="38" fill="#FFF9EE"/>
<defs>
<linearGradient id="paint0_linear_6_7" x1="123.502" y1="0" x2="123.502" y2="503" gradientUnits="userSpaceOnUse">
<stop stop-color="#F55050"/>
<stop offset="1" stop-color="#E25555"/>
</linearGradient>
</defs>
</svg>
